<?xml version="1.0" encoding="utf-8"?>
<!-- Generator: Adobe Illustrator 26.3.1, SVG Export Plug-In . SVG Version: 6.00 Build 0)  -->
<svg version="1.1" xmlns="http://www.w3.org/2000/svg" xmlns:xlink="http://www.w3.org/1999/xlink" x="0px" y="0px"
	 viewBox="0 0 50 50" style="enable-background:new 0 0 50 50;" xml:space="preserve">
<style type="text/css">
	.st0{fill:none;stroke:#000000;stroke-miterlimit:10;}
</style>
<g id="Layer_1">
	<path class="st0" d="M43.7,47.7H6.3c-2.2,0-4-1.8-4-4V6.3c0-2.2,1.8-4,4-4h37.4c2.2,0,4,1.8,4,4v37.4
		C47.7,45.9,45.9,47.7,43.7,47.7z"/>
</g>
<g id="Layer_2">
	<path class="st0" d="M9.1,43.2V32.1c0,0,3-3.7,7.5-2.5"/>
	<path class="st0" d="M40.1,43.1V32c0,0-3-3.7-7.5-2.5"/>
	<path class="st0" d="M22.7,25.8v3.8c0,0-1.5-1-4.5,0.3"/>
	<path class="st0" d="M26.6,25.8v3.8c0,0,1.5-1,4.5,0.3"/>
	<line class="st0" x1="18.5" y1="29.7" x2="18.2" y2="43.1"/>
	<line class="st0" x1="31.3" y1="29.7" x2="30.9" y2="43.1"/>
	<path class="st0" d="M31.5,20.1C31.4,20.1,31.4,20.1,31.5,20.1c-0.4,2.5-2.1,4.6-4.5,5.3c0.4,2.1,2.2,3.7,4.5,3.7
		c2.5,0,4.5-2,4.5-4.5C36,22.2,34,20.1,31.5,20.1z"/>
	<path class="st0" d="M31.4,20.1c0-0.3,0.1-0.5,0.1-0.8c0-3.6-2.9-6.5-6.5-6.5s-6.5,2.9-6.5,6.5c0,0.3,0,0.6,0.1,0.9"/>
	<path class="st0" d="M22.3,25.2c0.8,0.4,1.7,0.6,2.7,0.6c0.7,0,1.4-0.1,2-0.3"/>
	<path class="st0" d="M18.6,20.2c-0.3,0-0.5-0.1-0.8-0.1c-2.5,0-4.5,2-4.5,4.5c0,2.5,2,4.5,4.5,4.5c2.3,0,4.2-1.7,4.5-4
		C20.3,24.3,18.9,22.4,18.6,20.2z"/>
</g>
</svg>
