<?xml version="1.0" encoding="utf-8"?>
<!-- Generator: Adobe Illustrator 26.3.1, SVG Export Plug-In . SVG Version: 6.00 Build 0)  -->
<svg version="1.1" xmlns="http://www.w3.org/2000/svg" xmlns:xlink="http://www.w3.org/1999/xlink" x="0px" y="0px"
	 viewBox="0 0 50 50" style="enable-background:new 0 0 50 50;" xml:space="preserve">
<style type="text/css">
	.st0{fill:none;stroke:#000000;stroke-miterlimit:10;}
</style>
<g id="Layer_1">
	<path class="st0" d="M43.7,47.7H6.3c-2.2,0-4-1.8-4-4V6.3c0-2.2,1.8-4,4-4h37.4c2.2,0,4,1.8,4,4v37.4
		C47.7,45.9,45.9,47.7,43.7,47.7z"/>
</g>
<g id="Layer_2">
	<path class="st0" d="M34.8,41.3H15.7c-2.2,0-4-1.8-4-4v-26c0-2.2,1.8-4,4-4h19.1c2.2,0,4,1.8,4,4v26C38.8,39.5,37,41.3,34.8,41.3z"
		/>
	<line class="st0" x1="16.2" y1="12.7" x2="33.8" y2="12.7"/>
	<line class="st0" x1="16.2" y1="15.6" x2="33.8" y2="15.6"/>
	<line class="st0" x1="16.2" y1="18.5" x2="33.8" y2="18.5"/>
	<line class="st0" x1="16.2" y1="21.4" x2="33.8" y2="21.4"/>
	<line class="st0" x1="16.2" y1="24.3" x2="33.8" y2="24.3"/>
	<line class="st0" x1="16.2" y1="27.2" x2="33.8" y2="27.2"/>
	<line class="st0" x1="16.2" y1="30.1" x2="33.8" y2="30.1"/>
	<line class="st0" x1="16.2" y1="33.1" x2="33.8" y2="33.1"/>
	<line class="st0" x1="16.2" y1="36" x2="33.8" y2="36"/>
</g>
</svg>
