<?xml version="1.0" encoding="utf-8"?>
<!-- Generator: Adobe Illustrator 26.3.1, SVG Export Plug-In . SVG Version: 6.00 Build 0)  -->
<svg version="1.1" xmlns="http://www.w3.org/2000/svg" xmlns:xlink="http://www.w3.org/1999/xlink" x="0px" y="0px"
	 viewBox="0 0 50 50" style="enable-background:new 0 0 50 50;" xml:space="preserve">
<style type="text/css">
	.st0{fill:none;stroke:#000000;stroke-miterlimit:10;}
</style>
<g id="Layer_1">
	<path class="st0" d="M43.7,47.7H6.3c-2.2,0-4-1.8-4-4V6.3c0-2.2,1.8-4,4-4h37.4c2.2,0,4,1.8,4,4v37.4
		C47.7,45.9,45.9,47.7,43.7,47.7z"/>
</g>
<g id="Layer_2">
	<circle class="st0" cx="25" cy="17.1" r="8.5"/>
	<path class="st0" d="M38.6,39.5V28.7c0-0.3-0.2-0.5-0.4-0.6c-1.6-0.8-7.5-3.2-13.3,0.9h0.6c-5.7-4.1-12-1.7-13.7-0.9
		c-0.3,0.1-0.4,0.4-0.4,0.6v10.8"/>
</g>
</svg>
