<?xml version="1.0" encoding="utf-8"?>
<!-- Generator: Adobe Illustrator 26.3.1, SVG Export Plug-In . SVG Version: 6.00 Build 0)  -->
<svg version="1.1" xmlns="http://www.w3.org/2000/svg" xmlns:xlink="http://www.w3.org/1999/xlink" x="0px" y="0px"
	 viewBox="0 0 50 50" style="enable-background:new 0 0 50 50;" xml:space="preserve">
<style type="text/css">
	.st0{fill:none;stroke:#000000;stroke-miterlimit:10;}
</style>
<g id="Layer_1">
	<path class="st0" d="M43.7,47.7H6.3c-2.2,0-4-1.8-4-4V6.3c0-2.2,1.8-4,4-4h37.4c2.2,0,4,1.8,4,4v37.4
		C47.7,45.9,45.9,47.7,43.7,47.7z"/>
</g>
<g id="Layer_2">
	<path class="st0" d="M36.5,38H13.5c-2.2,0-4-1.8-4-4V14.8c0-2.2,1.8-4,4-4h23.1c2.2,0,4,1.8,4,4V34C40.5,36.3,38.7,38,36.5,38z"/>
	<polygon class="st0" points="35.6,22.8 32.6,21.3 29.6,22.9 30.1,19.6 27.7,17.3 31,16.8 32.4,13.7 34,16.7 37.3,17.1 34.9,19.5 	
		"/>
	<polyline class="st0" points="12.4,32.8 15.5,28.5 20,31 23.6,26.5 32.4,28.5 33,21.5 	"/>
</g>
</svg>
